{
    "asset" : {
        "generator" : "Khronos glTF Blender I/O v1.7.33",
        "version" : "2.0"
    },
    "scene" : 0,
    "scenes" : [
        {
            "name" : "Scene",
            "nodes" : [
                0
            ]
        }
    ],
    "nodes" : [
        {
            "mesh" : 0,
            "name" : "shop",
            "rotation" : [
                0,
                0,
                0,
                1
            ],
            "scale" : [
                4,
                1,
                4
            ],
            "translation" : [
                -5,
                8.5,
                -0.8999999761581421
            ]
        }
    ],
    "materials" : [
        {
            "doubleSided" : true,
            "name" : "Material.003",
            "pbrMetallicRoughness" : {
                "baseColorTexture" : {
                    "index" : 0
                },
                "metallicFactor" : 0,
                "roughnessFactor" : 0.5
            }
        },
        {
            "doubleSided" : true,
            "name" : "Material.026",
            "pbrMetallicRoughness" : {
                "baseColorTexture" : {
                    "index" : 1
                },
                "metallicFactor" : 0,
                "roughnessFactor" : 0.5
            }
        }
    ],
    "meshes" : [
        {
            "name" : "Text.187",
            "primitives" : [
                {
                    "attributes" : {
                        "POSITION" : 0,
                        "NORMAL" : 1,
                        "TEXCOORD_0" : 2
                    },
                    "indices" : 3,
                    "material" : 0
                },
                {
                    "attributes" : {
                        "POSITION" : 4,
                        "NORMAL" : 5,
                        "TEXCOORD_0" : 6
                    },
                    "indices" : 7,
                    "material" : 1
                }
            ]
        }
    ],
    "textures" : [
        {
            "sampler" : 0,
            "source" : 0
        },
        {
            "sampler" : 0,
            "source" : 1
        }
    ],
    "images" : [
        {
            "mimeType" : "image/png",
            "name" : "shop_text",
            "uri" : "shop_text.png"
        },
        {
            "mimeType" : "image/png",
            "name" : "shop",
            "uri" : "shop.png"
        }
    ],
    "accessors" : [
        {
            "bufferView" : 0,
            "componentType" : 5126,
            "count" : 376,
            "max" : [
                2.509999990463257,
                0,
                0.009000031277537346
            ],
            "min" : [
                0.04000000283122063,
                0,
                -0.6910000443458557
            ],
            "type" : "VEC3"
        },
        {
            "bufferView" : 1,
            "componentType" : 5126,
            "count" : 376,
            "type" : "VEC3"
        },
        {
            "bufferView" : 2,
            "componentType" : 5126,
            "count" : 376,
            "type" : "VEC2"
        },
        {
            "bufferView" : 3,
            "componentType" : 5123,
            "count" : 846,
            "type" : "SCALAR"
        },
        {
            "bufferView" : 4,
            "componentType" : 5126,
            "count" : 1152,
            "max" : [
                3.75,
                10.90000057220459,
                2.125
            ],
            "min" : [
                -1.25,
                -9.09999942779541,
                -0.9500000476837158
            ],
            "type" : "VEC3"
        },
        {
            "bufferView" : 5,
            "componentType" : 5126,
            "count" : 1152,
            "type" : "VEC3"
        },
        {
            "bufferView" : 6,
            "componentType" : 5126,
            "count" : 1152,
            "type" : "VEC2"
        },
        {
            "bufferView" : 7,
            "componentType" : 5123,
            "count" : 1668,
            "type" : "SCALAR"
        }
    ],
    "bufferViews" : [
        {
            "buffer" : 0,
            "byteLength" : 4512,
            "byteOffset" : 0
        },
        {
            "buffer" : 0,
            "byteLength" : 4512,
            "byteOffset" : 4512
        },
        {
            "buffer" : 0,
            "byteLength" : 3008,
            "byteOffset" : 9024
        },
        {
            "buffer" : 0,
            "byteLength" : 1692,
            "byteOffset" : 12032
        },
        {
            "buffer" : 0,
            "byteLength" : 13824,
            "byteOffset" : 13724
        },
        {
            "buffer" : 0,
            "byteLength" : 13824,
            "byteOffset" : 27548
        },
        {
            "buffer" : 0,
            "byteLength" : 9216,
            "byteOffset" : 41372
        },
        {
            "buffer" : 0,
            "byteLength" : 3336,
            "byteOffset" : 50588
        }
    ],
    "samplers" : [
        {
            "magFilter" : 9729,
            "minFilter" : 9987
        }
    ],
    "buffers" : [
        {
            "byteLength" : 53924,
            "uri" : "shop.bin"
        }
    ]
}
