{
    "asset" : {
        "generator" : "Khronos glTF Blender I/O v1.7.33",
        "version" : "2.0"
    },
    "scene" : 0,
    "scenes" : [
        {
            "name" : "Scene",
            "nodes" : [
                1
            ]
        }
    ],
    "nodes" : [
        {
            "mesh" : 0,
            "name" : "blades",
            "scale" : [
                0.75,
                15,
                0.75
            ],
            "translation" : [
                -0.002355000004172325,
                31.329599380493164,
                2.701349973678589
            ]
        },
        {
            "children" : [
                0
            ],
            "name" : "wind_turbine_blades",
            "scale" : [
                0.5,
                0.5,
                0.5
            ]
        }
    ],
    "animations" : [
        {
            "channels" : [
                {
                    "sampler" : 0,
                    "target" : {
                        "node" : 0,
                        "path" : "rotation"
                    }
                }
            ],
            "name" : "bladesAction",
            "samplers" : [
                {
                    "input" : 4,
                    "interpolation" : "LINEAR",
                    "output" : 5
                }
            ]
        }
    ],
    "materials" : [
        {
            "doubleSided" : true,
            "name" : "Material.003",
            "pbrMetallicRoughness" : {
                "baseColorTexture" : {
                    "index" : 0
                },
                "metallicFactor" : 0,
                "roughnessFactor" : 0.5
            }
        }
    ],
    "meshes" : [
        {
            "name" : "Cylinder.003",
            "primitives" : [
                {
                    "attributes" : {
                        "POSITION" : 0,
                        "NORMAL" : 1,
                        "TEXCOORD_0" : 2
                    },
                    "indices" : 3,
                    "material" : 0
                }
            ]
        }
    ],
    "textures" : [
        {
            "sampler" : 0,
            "source" : 0
        }
    ],
    "images" : [
        {
            "mimeType" : "image/png",
            "name" : "blades",
            "uri" : "blades.png"
        }
    ],
    "accessors" : [
        {
            "bufferView" : 0,
            "componentType" : 5126,
            "count" : 276,
            "max" : [
                22.990758895874023,
                1.2734183073043823,
                0.7982089519500732
            ],
            "min" : [
                -22.972448348999023,
                -0.67332524061203,
                -0.8017911911010742
            ],
            "type" : "VEC3"
        },
        {
            "bufferView" : 1,
            "componentType" : 5126,
            "count" : 276,
            "type" : "VEC3"
        },
        {
            "bufferView" : 2,
            "componentType" : 5126,
            "count" : 276,
            "type" : "VEC2"
        },
        {
            "bufferView" : 3,
            "componentType" : 5123,
            "count" : 414,
            "type" : "SCALAR"
        },
        {
            "bufferView" : 4,
            "componentType" : 5126,
            "count" : 361,
            "max" : [
                15
            ],
            "min" : [
                0
            ],
            "type" : "SCALAR"
        },
        {
            "bufferView" : 5,
            "componentType" : 5126,
            "count" : 361,
            "type" : "VEC4"
        }
    ],
    "bufferViews" : [
        {
            "buffer" : 0,
            "byteLength" : 3312,
            "byteOffset" : 0
        },
        {
            "buffer" : 0,
            "byteLength" : 3312,
            "byteOffset" : 3312
        },
        {
            "buffer" : 0,
            "byteLength" : 2208,
            "byteOffset" : 6624
        },
        {
            "buffer" : 0,
            "byteLength" : 828,
            "byteOffset" : 8832
        },
        {
            "buffer" : 0,
            "byteLength" : 1444,
            "byteOffset" : 9660
        },
        {
            "buffer" : 0,
            "byteLength" : 5776,
            "byteOffset" : 11104
        }
    ],
    "samplers" : [
        {
            "magFilter" : 9729,
            "minFilter" : 9987
        }
    ],
    "buffers" : [
        {
            "byteLength" : 16880,
            "uri" : "wind_turbine_blades.bin"
        }
    ]
}
